# xmcd
#
# Track frame offsets: 
#        150
#        20037
#        43325
#        64662
#        82762
#        102175
#        122762
#        142137
#        159000
#        172487
#        188237
#        207832
#        237570
#
# Disc length: 3455 seconds
#
# Revision: 0
# Processed by: cddbd v1.5.2PL0 Copyright (c) Steve Scherf et al.
# Submitted via: ExactAudioCopy v0.95a5
#
DISCID=b90d7d0d
DTITLE=Annie Lennox - Cold, Colder, Coldest (MTV Unplugged)
DYEAR=1900
DGENRE=Blues
TTITLE0=Cold
TTITLE1=Why
TTITLE2=The Gift
TTITLE3=Walking On Broken Glass
TTITLE4=It's Alright Baby's Coming Back
TTITLE5=Here Come's The Rain Again
TTITLE6=You Have Placed A Chill In My Heart
TTITLE7=River Deep Mountain High
TTITLE8=Feel The Need
TTITLE9=Don't Let Me Dwn
TTITLE10=Love Song For A Vampire (From Dracula)
TTITLE11=Little Bird - Utah Saints Remix
TTITLE12=Little Bird - N'joi Remix version
EXTD=
EXTT0=
EXTT1=
EXTT2=
EXTT3=
EXTT4=
EXTT5=
EXTT6=
EXTT7=
EXTT8=
EXTT9=
EXTT10=
EXTT11=
EXTT12=
PLAYORDER=
